<?xml version="1.0" encoding="UTF-8"?>
<svg xmlns="http://www.w3.org/2000/svg" xmlns:xlink="http://www.w3.org/1999/xlink" viewBox="0 0 40 40" width="40px" height="40px">
<g id="surface42273399">
<path style=" stroke:none;fill-rule:nonzero;fill:rgb(41.960785%,100%,77.64706%);fill-opacity:0.67843;" d="M 15.332031 0.667969 C 11.652344 0.667969 8.667969 3.652344 8.667969 7.332031 C 8.667969 11.015625 11.652344 14 15.332031 14 C 19.015625 14 22 11.015625 22 7.332031 C 22 3.652344 19.015625 0.667969 15.332031 0.667969 Z M 15.332031 0.667969 "/>
<path style=" stroke:none;fill-rule:nonzero;fill:rgb(41.960785%,100%,77.64706%);fill-opacity:0.30196;" d="M 15.332031 1.332031 C 18.640625 1.332031 21.332031 4.023438 21.332031 7.332031 C 21.332031 10.640625 18.640625 13.332031 15.332031 13.332031 C 12.023438 13.332031 9.332031 10.640625 9.332031 7.332031 C 9.332031 4.023438 12.023438 1.332031 15.332031 1.332031 M 15.332031 0 C 11.28125 0 8 3.28125 8 7.332031 C 8 11.382812 11.28125 14.667969 15.332031 14.667969 C 19.382812 14.667969 22.667969 11.382812 22.667969 7.332031 C 22.667969 3.28125 19.382812 0 15.332031 0 Z M 15.332031 0 "/>
<path style=" stroke:none;fill-rule:nonzero;fill:rgb(100%,93.333334%,63.921571%);fill-opacity:1;" d="M 20 38 C 17.238281 38 14.847656 36.894531 12.472656 34.519531 L 4.3125 26.355469 C 3.679688 25.726562 3.332031 24.890625 3.332031 24 C 3.332031 23.109375 3.679688 22.273438 4.308594 21.644531 C 4.941406 21.011719 5.777344 20.667969 6.667969 20.667969 C 7.558594 20.667969 8.394531 21.011719 9.023438 21.644531 L 12.667969 25.285156 L 12.667969 20.667969 L 34 20.667969 L 34 30.667969 C 34 34.710938 30.710938 38 26.667969 38 Z M 20 38 "/>
<path style=" stroke:none;fill-rule:nonzero;fill:rgb(83.92157%,64.313728%,12.156863%);fill-opacity:1;" d="M 6.667969 21.332031 C 7.378906 21.332031 8.046875 21.609375 8.550781 22.113281 L 13.332031 26.894531 L 13.332031 21.332031 L 33.332031 21.332031 L 33.332031 30.667969 C 33.332031 34.34375 30.34375 37.332031 26.667969 37.332031 L 20 37.332031 C 18.382812 37.332031 15.886719 36.992188 12.941406 34.046875 L 4.78125 25.886719 C 3.742188 24.84375 3.742188 23.152344 4.78125 22.113281 C 5.285156 21.609375 5.953125 21.332031 6.667969 21.332031 M 6.667969 20 C 5.644531 20 4.617188 20.390625 3.839844 21.171875 C 2.277344 22.734375 2.277344 25.265625 3.839844 26.828125 C 3.839844 26.828125 9.042969 32.035156 12 34.992188 C 14.957031 37.945312 17.660156 38.667969 20 38.667969 C 21.296875 38.667969 26.667969 38.667969 26.667969 38.667969 C 31.085938 38.667969 34.667969 35.085938 34.667969 30.667969 L 34.667969 20 L 12 20 L 12 23.675781 L 9.496094 21.171875 C 8.714844 20.390625 7.691406 20 6.667969 20 Z M 6.667969 20 "/>
<path style=" stroke:none;fill-rule:nonzero;fill:rgb(100%,93.333334%,63.921571%);fill-opacity:1;" d="M 18 20.667969 L 18 18 C 18 16.53125 19.195312 15.332031 20.667969 15.332031 C 22.136719 15.332031 23.332031 16.53125 23.332031 18 L 23.332031 20.667969 Z M 18 20.667969 "/>
<path style=" stroke:none;fill-rule:nonzero;fill:rgb(83.92157%,64.313728%,12.156863%);fill-opacity:1;" d="M 20.667969 16 C 21.769531 16 22.667969 16.898438 22.667969 18 L 22.667969 20 L 18.667969 20 L 18.667969 18 C 18.667969 16.898438 19.5625 16 20.667969 16 M 20.667969 14.667969 C 18.824219 14.667969 17.332031 16.160156 17.332031 18 L 17.332031 21.332031 L 24 21.332031 L 24 18 C 24 16.160156 22.507812 14.667969 20.667969 14.667969 Z M 20.667969 14.667969 "/>
<path style=" stroke:none;fill-rule:nonzero;fill:rgb(100%,93.333334%,63.921571%);fill-opacity:1;" d="M 12.667969 20.667969 L 12.667969 7.332031 C 12.667969 5.863281 13.863281 4.667969 15.332031 4.667969 C 16.804688 4.667969 18 5.863281 18 7.332031 L 18 20.667969 Z M 12.667969 20.667969 "/>
<path style=" stroke:none;fill-rule:nonzero;fill:rgb(83.92157%,64.313728%,12.156863%);fill-opacity:1;" d="M 15.332031 5.332031 C 16.4375 5.332031 17.332031 6.230469 17.332031 7.332031 L 17.332031 20 L 13.332031 20 L 13.332031 7.332031 C 13.332031 6.230469 14.230469 5.332031 15.332031 5.332031 M 15.332031 4 C 13.492188 4 12 5.492188 12 7.332031 L 12 21.332031 L 18.667969 21.332031 L 18.667969 7.332031 C 18.667969 5.492188 17.175781 4 15.332031 4 Z M 15.332031 4 "/>
<path style=" stroke:none;fill-rule:nonzero;fill:rgb(100%,93.333334%,63.921571%);fill-opacity:1;" d="M 23.332031 20.667969 L 23.332031 18 C 23.332031 16.53125 24.53125 15.332031 26 15.332031 C 27.46875 15.332031 28.667969 16.53125 28.667969 18 L 28.667969 20.667969 Z M 23.332031 20.667969 "/>
<path style=" stroke:none;fill-rule:nonzero;fill:rgb(83.92157%,64.313728%,12.156863%);fill-opacity:1;" d="M 26 16 C 27.101562 16 28 16.898438 28 18 L 28 20 L 24 20 L 24 18 C 24 16.898438 24.898438 16 26 16 M 26 14.667969 C 24.160156 14.667969 22.667969 16.160156 22.667969 18 L 22.667969 21.332031 L 29.332031 21.332031 L 29.332031 18 C 29.332031 16.160156 27.839844 14.667969 26 14.667969 Z M 26 14.667969 "/>
<path style=" stroke:none;fill-rule:nonzero;fill:rgb(100%,93.333334%,63.921571%);fill-opacity:1;" d="M 28.667969 23.332031 L 28.667969 19.332031 C 28.667969 17.863281 29.863281 16.667969 31.332031 16.667969 C 32.804688 16.667969 34 17.863281 34 19.332031 L 34 23.332031 Z M 28.667969 23.332031 "/>
<path style=" stroke:none;fill-rule:nonzero;fill:rgb(83.92157%,64.313728%,12.156863%);fill-opacity:1;" d="M 31.332031 17.332031 C 32.4375 17.332031 33.332031 18.230469 33.332031 19.332031 L 33.332031 22.667969 L 29.332031 22.667969 L 29.332031 19.332031 C 29.332031 18.230469 30.230469 17.332031 31.332031 17.332031 M 31.332031 16 C 29.492188 16 28 17.492188 28 19.332031 L 28 24 L 34.667969 24 L 34.667969 19.332031 C 34.667969 17.492188 33.175781 16 31.332031 16 Z M 31.332031 16 "/>
<path style=" stroke:none;fill-rule:nonzero;fill:rgb(100%,93.333334%,63.921571%);fill-opacity:1;" d="M 32 20 L 32 18.667969 L 13.332031 18.667969 L 13.332031 25.332031 L 33.332031 25.332031 L 33.332031 20 Z M 32 20 "/>
</g>
</svg>
