<?xml version="1.0" encoding="UTF-8"?>
<svg xmlns="http://www.w3.org/2000/svg" xmlns:xlink="http://www.w3.org/1999/xlink" viewBox="0 0 24 24" width="24px" height="24px">
<g id="surface42128637">
<path style=" stroke:none;fill-rule:nonzero;fill:rgb(0%,92.941177%,57.254905%);fill-opacity:1;" d="M 11 2 C 10.449219 2 10 2.449219 10 3 L 10 11 L 6.5 11 C 6.222656 11 6 11.222656 6 11.5 C 6 11.632812 6.050781 11.757812 6.144531 11.855469 C 6.15625 11.863281 6.167969 11.875 6.175781 11.882812 L 11.285156 16.699219 L 11.316406 16.730469 C 11.5 16.902344 11.746094 17 12 17 C 12.253906 17 12.5 16.902344 12.683594 16.730469 L 12.695312 16.71875 C 12.699219 16.714844 12.703125 16.710938 12.707031 16.707031 L 17.808594 11.894531 C 17.820312 11.882812 17.832031 11.875 17.839844 11.867188 L 17.847656 11.859375 C 17.851562 11.859375 17.851562 11.855469 17.851562 11.855469 C 17.949219 11.761719 18 11.632812 18 11.5 C 18 11.222656 17.777344 11 17.5 11 L 14 11 L 14 3 C 14 2.449219 13.550781 2 13 2 Z M 3 20 C 2.640625 19.996094 2.304688 20.183594 2.121094 20.496094 C 1.941406 20.808594 1.941406 21.191406 2.121094 21.503906 C 2.304688 21.816406 2.640625 22.003906 3 22 L 21 22 C 21.359375 22.003906 21.695312 21.816406 21.878906 21.503906 C 22.058594 21.191406 22.058594 20.808594 21.878906 20.496094 C 21.695312 20.183594 21.359375 19.996094 21 20 Z M 3 20 "/>
</g>
</svg>
