<?xml version="1.0" encoding="UTF-8"?>
<svg xmlns="http://www.w3.org/2000/svg" xmlns:xlink="http://www.w3.org/1999/xlink" viewBox="0 0 48 48" width="48px" height="48px">
<g id="surface42176278">
<path style=" stroke:none;fill-rule:nonzero;fill:rgb(100%,23.921569%,0%);fill-opacity:0.62745;" d="M 34 11 L 28 5 L 20 5 L 14 11 L 11 11 L 11 39 C 11 41.199219 12.800781 43 15 43 L 33 43 C 35.199219 43 37 41.199219 37 39 L 37 11 Z M 34 11 "/>
<path style=" stroke:none;fill-rule:nonzero;fill:rgb(100%,42.352942%,23.921569%);fill-opacity:1;" d="M 11 7 L 37 7 C 38.101562 7 39 7.898438 39 9 L 39 11 L 9 11 L 9 9 C 9 7.898438 9.898438 7 11 7 Z M 11 7 "/>
<path style=" stroke:none;fill-rule:nonzero;fill:rgb(98.039216%,98.039216%,98.039216%);fill-opacity:1;" d="M 16.585938 31.585938 L 28.585938 19.585938 L 31.414062 22.414062 L 19.414062 34.414062 Z M 16.585938 31.585938 "/>
<path style=" stroke:none;fill-rule:nonzero;fill:rgb(98.039216%,98.039216%,98.039216%);fill-opacity:1;" d="M 16.585938 22.414062 L 19.414062 19.585938 L 31.414062 31.585938 L 28.585938 34.414062 Z M 16.585938 22.414062 "/>
</g>
</svg>
